<svg xmlns="http://www.w3.org/2000/svg" width="256" height="256"><path fill-opacity=".016" d="M0 128.004v128.004l128.25-.254 128.25-.254.254-127.75L257.008 0H0v128.004m.485.496c0 70.4.119 99.053.265 63.672.146-35.38.146-92.98 0-128C.604 29.153.485 58.1.485 128.5" fill-rule="evenodd"/><path fill-opacity=".239" d="M0 128.004v128.004l128.25-.254 128.25-.254.254-127.75L257.008 0H0v128.004m.485.496c0 70.4.119 99.053.265 63.672.146-35.38.146-92.98 0-128C.604 29.153.485 58.1.485 128.5M89.74 62.273 51.979 84.194l.261 43.992.26 43.991 37.794 21.783 37.794 21.784 37.966-21.971 37.967-21.971-.261-43.986-.26-43.986L168 63.335c-19.525-11.273-36.625-21.056-38-21.74-2.336-1.162-4.984.198-40.26 20.678m3.76 7.099-33 19.215V167.496l33.362 19.252C112.211 197.336 127.587 206 128.03 206c.443 0 15.805-8.671 34.138-19.269l33.332-19.27V88.504l-33.362-19.252c-18.349-10.588-33.874-19.217-34.5-19.173-.626.043-15.988 8.725-34.138 19.293m11.75 8.228C84.537 89.325 83 90.388 83 92.998c0 2.601 1.624 3.746 22.464 15.85l22.465 13.046 22.535-13.159C168.447 98.234 173 95.154 173 93.488c0-2.336-1.752-4.488-3.653-4.488-.689 0-10.254 4.994-21.256 11.098-11.003 6.104-20.39 10.941-20.861 10.75-5.108-2.074-30.122-16.594-29.887-17.348.267-.858 34.107-21.5 35.246-21.5.226 0 .411 1.298.411 2.885 0 1.977.79 3.403 2.51 4.53 3.391 2.221 6.49.628 6.49-3.336 0-2.464-.94-3.409-6.925-6.965-3.808-2.263-7.071-4.113-7.25-4.111-.179.002-10.337 5.671-22.575 12.597m-30.609 29.261L72 108.463v52.307l2.595 1.7c2.498 1.637 2.687 1.613 5.069-.624 2.286-2.147 2.449-2.913 2.155-10.087-.176-4.27.019-7.763.431-7.761.413.001 7.388 3.777 15.5 8.392l14.75 8.39.282 11.608c.266 10.978.411 11.692 2.666 13.17 1.998 1.309 2.724 1.351 4.469.262 2.026-1.265 2.083-2.027 2.076-27.811l-.006-26.509-8.244-4.73c-4.533-2.601-14.592-8.505-22.352-13.12-13.867-8.247-14.155-8.364-16.75-6.789m80.859 12.018-22 12.699-.267 25.625-.266 25.626 2.569 2.021 2.57 2.021 11.197-6.552c6.158-3.603 16.26-9.483 22.447-13.067l11.25-6.516v-8.458c0-7.553-.24-8.656-2.25-10.316l-2.25-1.858 2.25-1.609c2.155-1.54 2.25-2.218 2.25-16.017 0-13.221-.159-14.493-1.934-15.443-1.064-.569-2.302-.994-2.75-.945-.449.05-10.716 5.805-22.816 12.789m3.781 8.54c-7.82 4.556-14.907 8.856-15.75 9.555-1.267 1.052-1.531 4.263-1.531 18.648 0 9.558.315 17.378.7 17.378.386 0 7.586-3.912 16-8.694 14.737-8.374 15.3-8.811 15.3-11.896 0-2.747-.709-3.657-5-6.41-3.945-2.531-4.997-3.767-4.986-5.854.012-2.134.98-3.178 5-5.396l4.986-2.749V125.5c0-3.575-.113-6.47-.25-6.432-.137.037-6.648 3.795-14.469 8.351m-78.079-1.223.298 6.197L97 141.17l15.5 8.777.304-5.619c.168-3.091-.107-6.031-.611-6.535-1.45-1.45-29.341-17.793-30.366-17.793-.507 0-.788 2.788-.625 6.196" fill-rule="evenodd"/><path fill-opacity=".476" d="M0 128.004v128.004l128.25-.254 128.25-.254.254-127.75L257.008 0H0v128.004m.485.496c0 70.4.119 99.053.265 63.672.146-35.38.146-92.98 0-128C.604 29.153.485 58.1.485 128.5M90 61.798 52.5 83.524l-.217 44.488-.217 44.488 37.999 21.795 37.998 21.796 37.719-21.806 37.718-21.807.224-44.489.224-44.489L166.447 62c-20.626-11.825-37.826-21.596-38.224-21.714-.398-.118-17.598 9.562-38.223 21.512m3.738 7.848L59.977 89.233l.261 38.967.262 38.967 33.778 19.463 33.777 19.463 33.984-19.645 33.984-19.645-.261-38.985-.262-38.985-33-19.03c-18.15-10.467-33.45-19.192-34-19.387-.55-.196-16.193 8.458-34.762 19.23m10.512 8.134C84.393 89.119 82 90.76 82 93.034c0 2.267 2.414 3.952 21.789 15.208 11.984 6.962 22.447 12.904 23.25 13.204.817.304 11.166-5.144 23.461-12.351 19.874-11.65 22.028-13.172 22.288-15.746.199-1.968-.321-3.225-1.681-4.065-1.721-1.062-4.569.232-22.581 10.262l-20.612 11.476-14.957-8.244c-8.226-4.534-14.951-8.702-14.944-9.261.012-.988 30.95-19.692 33.643-20.34.858-.207 1.344.598 1.344 2.227 0 1.643.925 3.156 2.601 4.254 3.484 2.283 5.899.775 5.899-3.684 0-2.959-.634-3.706-6-7.071-3.3-2.069-6.675-3.777-7.5-3.796-.825-.018-11.512 5.684-23.75 12.673m-30 28.894c-2.238 1.562-2.25 1.712-2.25 28.287v26.718l2.623 1.195c2.137.974 3.056.911 4.961-.337 2.101-1.377 2.367-2.391 2.627-10.014l.289-8.481 13.598 7.729c7.48 4.251 14.342 8.347 15.25 9.101 1.356 1.127 1.652 3.382 1.652 12.581 0 10.878.073 11.248 2.455 12.523 2.096 1.122 2.828 1.068 5.016-.365l2.562-1.679-.266-26.169-.267-26.168-22.5-13.287c-12.375-7.307-22.725-13.268-23-13.245-.275.023-1.513.748-2.75 1.611m81.011 12.105L133.022 131.5l-.011 26.135L133 183.77l2.574 1.686c2.557 1.676 2.715 1.604 24.75-11.173l22.176-12.86.292-8.926c.269-8.222.118-9.057-1.922-10.595l-2.214-1.67 2.172-1.357c2.07-1.292 2.172-2.05 2.172-16.08 0-13.534-.156-14.808-1.934-15.76-1.064-.569-2.302-1.022-2.75-1.006-.449.017-10.823 5.754-23.055 12.75m-73.24 7.356.021 6.365 14.838 8.25c8.161 4.537 15.127 8.25 15.479 8.25.353 0 .641-2.429.641-5.398v-5.398l-13.25-7.759c-7.287-4.268-14.263-8.416-15.5-9.217L82 119.77l.021 6.365m75.729 2.541L143 137.252v35.628l15.25-8.727c13.857-7.93 15.277-8.999 15.546-11.701.263-2.652-.306-3.338-5.25-6.335-7.5-4.546-7.51-6.83-.046-11.295l5.5-3.289v-5.767c0-3.171-.338-5.744-.75-5.716-.412.027-7.387 3.909-15.5 8.626" fill-rule="evenodd"/><path fill-opacity=".98" d="M0 128.004v128.004l128.25-.254 128.25-.254.254-127.75L257.008 0H0v128.004m.485.496c0 70.4.119 99.053.265 63.672.146-35.38.146-92.98 0-128C.604 29.153.485 58.1.485 128.5M89 61.942 51.5 83.738v88.63l37.886 21.816C110.224 206.183 127.642 216 128.093 216c.451 0 17.827-9.841 38.613-21.869l37.794-21.87V83.632l-37.886-21.816c-20.838-11.999-38.388-21.783-39-21.743-.613.04-17.989 9.881-38.614 21.869m5 7.957L61.5 88.76v78.601L94 186.142c17.875 10.33 33.175 18.791 34 18.802.825.01 16.125-8.469 34-18.843l32.5-18.861V88.639L162 69.858c-17.875-10.33-33.175-18.791-34-18.802-.825-.01-16.125 8.469-34 18.843m10.695 7.236c-29.865 17.129-29.85 14.639-.195 31.947 12.1 7.063 22.568 12.858 23.262 12.879.694.022 11.382-5.864 23.75-13.078C170.771 97.649 174 95.427 174 93.406c0-1.415-1.003-3.017-2.506-4.002-2.46-1.612-2.867-1.441-22.547 9.477-11.023 6.116-20.509 11.119-21.08 11.119-1.331 0-28.74-14.985-29.419-16.084C98.007 93.202 130.804 73 132.406 73c.327 0 .594 1.298.594 2.885 0 1.974.79 3.402 2.5 4.523 2.316 1.517 2.684 1.517 5 0 1.685-1.104 2.5-2.554 2.5-4.448 0-2.427-1.028-3.434-7.535-7.385-4.145-2.516-7.632-4.562-7.75-4.547-.118.015-10.477 5.914-23.02 13.107M74.25 106.22 72 107.306V162.043l2.509 1.143c1.943.885 3.07.842 5-.191 2.364-1.265 2.491-1.781 2.491-10.09v-8.757l15 8.548 15 8.548v11.31c0 11.232.019 11.324 2.786 13.293 2.627 1.871 2.939 1.89 5.5.337l2.714-1.647-.005-26.519-.006-26.518-22.456-13.25c-12.351-7.287-22.811-13.22-23.245-13.182-.433.037-1.801.556-3.038 1.152m81.448 11.95-22.73 13 .266 26.627.266 26.627 2.566 1.44c2.469 1.386 3.414.944 25.25-11.8L184 160.824v-8.672c0-7.732-.228-8.813-2.105-9.985l-2.105-1.315 2.105-2.24c1.935-2.06 2.105-3.382 2.105-16.401v-14.16l-2.786-1.44c-2.715-1.404-3.356-1.114-25.516 11.559m2.563 10.641-15.24 8.689-.01 17.25c-.006 9.488.156 17.25.359 17.25.204 0 7.179-3.851 15.5-8.557 18.047-10.207 18.627-11.231 9.63-16.986-4.457-2.851-5.5-4.034-5.499-6.238.001-2.226.919-3.235 5.068-5.565 5.845-3.283 6.158-3.826 5.741-9.97l-.31-4.562-15.239 8.689M82.2 126.585l.3 5.584 14.75 8.345 14.75 8.344V138.06l-14.421-8.53c-7.931-4.691-14.703-8.53-15.05-8.53-.346 0-.494 2.513-.329 5.585" fill-rule="evenodd"/></svg>